<?xml version="1.0" encoding="UTF-8"?>
<!DOCTYPE svg PUBLIC "-//W3C//DTD SVG 1.1//EN" "http://www.w3.org/Graphics/SVG/1.1/DTD/svg11.dtd">
<svg xmlns="http://www.w3.org/2000/svg" version="1.1" width="238px" height="114px" style="shape-rendering:geometricPrecision; text-rendering:geometricPrecision; image-rendering:optimizeQuality; fill-rule:evenodd; clip-rule:evenodd" xmlns:xlink="http://www.w3.org/1999/xlink">
<g><path style="opacity:1" fill="#435b75" d="M -0.5,-0.5 C 8.5,-0.5 17.5,-0.5 26.5,-0.5C 24.7366,3.09157 25.7366,5.59157 29.5,7C 25.9445,9.85203 26.4445,12.352 31,14.5C 31.5758,16.3774 31.4091,18.2108 30.5,20C 32.6496,21.405 34.3163,23.2384 35.5,25.5C 28.444,24.7576 24.2773,27.7576 23,34.5C 22.3333,40.1667 22.3333,45.8333 23,51.5C 25.7195,54.3188 28.0528,53.9855 30,50.5C 30.9587,46.5786 29.792,43.4119 26.5,41C 30.5885,35.7896 35.9219,33.623 42.5,34.5C 41.0003,55.8462 41.167,77.1796 43,98.5C 44.7889,100.229 46.9556,100.896 49.5,100.5C 49.1033,95.0414 49.6033,89.7081 51,84.5C 53.6824,87.3497 56.5157,90.0164 59.5,92.5C 61.6114,91.3954 62.9447,89.7288 63.5,87.5C 65.0816,81.911 66.5816,76.2443 68,70.5C 71.4047,71.4676 71.9047,72.9676 69.5,75C 72.9754,77.0677 74.4754,80.2344 74,84.5C 75.518,86.348 77.3513,87.848 79.5,89C 76.7019,91.0664 77.0352,92.5664 80.5,93.5C 80.7924,97.1872 82.459,100.02 85.5,102C 85.0426,102.414 84.7093,102.914 84.5,103.5C 88.3709,104.141 89.0376,105.641 86.5,108C 88.9042,108.508 89.5709,109.675 88.5,111.5C 89.2427,112.182 89.9094,112.849 90.5,113.5C 60.1667,113.5 29.8333,113.5 -0.5,113.5C -0.5,75.5 -0.5,37.5 -0.5,-0.5 Z"/></g>
<g><path style="opacity:1" fill="#485f79" d="M 26.5,-0.5 C 54.1667,-0.5 81.8333,-0.5 109.5,-0.5C 109.5,37.5 109.5,75.5 109.5,113.5C 103.167,113.5 96.8333,113.5 90.5,113.5C 89.9094,112.849 89.2427,112.182 88.5,111.5C 89.5709,109.675 88.9042,108.508 86.5,108C 89.0376,105.641 88.3709,104.141 84.5,103.5C 84.7093,102.914 85.0426,102.414 85.5,102C 82.459,100.02 80.7924,97.1872 80.5,93.5C 77.0352,92.5664 76.7019,91.0664 79.5,89C 77.3513,87.848 75.518,86.348 74,84.5C 74.4754,80.2344 72.9754,77.0677 69.5,75C 71.9047,72.9676 71.4047,71.4676 68,70.5C 66.5816,76.2443 65.0816,81.911 63.5,87.5C 63.4321,69.1369 64.0987,50.8035 65.5,32.5C 71.7311,31.8531 76.8978,33.8531 81,38.5C 81.3446,40.2009 80.6779,41.5342 79,42.5C 77.4228,47.0794 78.9228,50.0794 83.5,51.5C 86.4263,50.7433 88.093,48.91 88.5,46C 86.213,39.7956 83.5463,33.7956 80.5,28C 73.2618,25.9747 65.9285,24.4747 58.5,23.5C 61.4916,12.4916 57.4916,8.49159 46.5,11.5C 45.6837,16.1042 45.3504,20.6042 45.5,25C 42.1332,26.201 38.7998,26.3676 35.5,25.5C 34.3163,23.2384 32.6496,21.405 30.5,20C 31.4091,18.2108 31.5758,16.3774 31,14.5C 26.4445,12.352 25.9445,9.85203 29.5,7C 25.7366,5.59157 24.7366,3.09157 26.5,-0.5 Z"/></g>
<g><path style="opacity:1" fill="#fcfcfc" d="M 109.5,-0.5 C 152.167,-0.5 194.833,-0.5 237.5,-0.5C 237.5,18.8333 237.5,38.1667 237.5,57.5C 233.39,51.94 227.724,49.1066 220.5,49C 216.205,47.1549 215.538,44.4882 218.5,41C 223.232,39.9642 227.566,40.7975 231.5,43.5C 237.305,39.2602 236.638,36.4269 229.5,35C 223.574,33.8898 217.908,34.5564 212.5,37C 207.737,44.3131 209.071,50.3131 216.5,55C 221.071,55.5225 225.238,57.0225 229,59.5C 230.14,62.5282 229.306,64.6949 226.5,66C 221.017,67.094 216.35,65.594 212.5,61.5C 210.639,62.5283 209.305,64.0283 208.5,66C 211.72,71.1082 216.387,73.2748 222.5,72.5C 229.157,73.4055 234.157,71.0721 237.5,65.5C 237.5,81.5 237.5,97.5 237.5,113.5C 194.833,113.5 152.167,113.5 109.5,113.5C 109.5,75.5 109.5,37.5 109.5,-0.5 Z"/></g>
<g><path style="opacity:1" fill="#51bec6" d="M 63.5,87.5 C 62.9447,89.7288 61.6114,91.3954 59.5,92.5C 56.5157,90.0164 53.6824,87.3497 51,84.5C 49.6033,89.7081 49.1033,95.0414 49.5,100.5C 46.9556,100.896 44.7889,100.229 43,98.5C 41.167,77.1796 41.0003,55.8462 42.5,34.5C 35.9219,33.623 30.5885,35.7896 26.5,41C 29.792,43.4119 30.9587,46.5786 30,50.5C 28.0528,53.9855 25.7195,54.3188 23,51.5C 22.3333,45.8333 22.3333,40.1667 23,34.5C 24.2773,27.7576 28.444,24.7576 35.5,25.5C 38.7998,26.3676 42.1332,26.201 45.5,25C 45.3504,20.6042 45.6837,16.1042 46.5,11.5C 57.4916,8.49159 61.4916,12.4916 58.5,23.5C 65.9285,24.4747 73.2618,25.9747 80.5,28C 83.5463,33.7956 86.213,39.7956 88.5,46C 88.093,48.91 86.4263,50.7433 83.5,51.5C 78.9228,50.0794 77.4228,47.0794 79,42.5C 80.6779,41.5342 81.3446,40.2009 81,38.5C 76.8978,33.8531 71.7311,31.8531 65.5,32.5C 64.0987,50.8035 63.4321,69.1369 63.5,87.5 Z"/></g>
<g><path style="opacity:1" fill="#060606" d="M 131.5,34.5 C 137.262,34.1493 142.928,34.6493 148.5,36C 150.351,37.6837 152.018,39.5171 153.5,41.5C 151.807,43.0267 149.973,44.3601 148,45.5C 143.795,40.4062 138.628,39.2395 132.5,42C 127.676,48.7634 127.176,55.9301 131,63.5C 134.338,66.3181 138.171,67.1515 142.5,66C 145.821,64.1881 147.155,61.3547 146.5,57.5C 143.5,57.5 140.5,57.5 137.5,57.5C 137.5,55.5 137.5,53.5 137.5,51.5C 142.833,51.5 148.167,51.5 153.5,51.5C 153.5,58.5 153.5,65.5 153.5,72.5C 151.167,72.5 148.833,72.5 146.5,72.5C 146.66,70.8008 146.494,69.1341 146,67.5C 145.167,69.6667 143.667,71.1667 141.5,72C 133.198,74.5369 127.032,72.0369 123,64.5C 120.443,55.8421 121.11,47.5087 125,39.5C 127.326,37.9343 129.492,36.2676 131.5,34.5 Z"/></g>
<g><path style="opacity:1" fill="#0b0b0b" d="M 162.5,34.5 C 166.106,34.2108 169.606,34.5442 173,35.5C 175.894,44.2836 179.061,52.9503 182.5,61.5C 186.101,52.6957 189.101,43.6957 191.5,34.5C 194.833,34.5 198.167,34.5 201.5,34.5C 201.5,47.1667 201.5,59.8333 201.5,72.5C 199.167,72.5 196.833,72.5 194.5,72.5C 194.666,64.16 194.5,55.8267 194,47.5C 190.859,55.7568 188.026,64.0902 185.5,72.5C 183.167,72.5 180.833,72.5 178.5,72.5C 176.364,63.9255 173.531,55.5922 170,47.5C 169.5,55.8267 169.334,64.16 169.5,72.5C 167.167,72.5 164.833,72.5 162.5,72.5C 162.5,59.8333 162.5,47.1667 162.5,34.5 Z"/></g>
<g><path style="opacity:1" fill="#0b0b0b" d="M 237.5,57.5 C 237.5,60.1667 237.5,62.8333 237.5,65.5C 234.157,71.0721 229.157,73.4055 222.5,72.5C 216.387,73.2748 211.72,71.1082 208.5,66C 209.305,64.0283 210.639,62.5283 212.5,61.5C 216.35,65.594 221.017,67.094 226.5,66C 229.306,64.6949 230.14,62.5282 229,59.5C 225.238,57.0225 221.071,55.5225 216.5,55C 209.071,50.3131 207.737,44.3131 212.5,37C 217.908,34.5564 223.574,33.8898 229.5,35C 236.638,36.4269 237.305,39.2602 231.5,43.5C 227.566,40.7975 223.232,39.9642 218.5,41C 215.538,44.4882 216.205,47.1549 220.5,49C 227.724,49.1066 233.39,51.94 237.5,57.5 Z"/></g>
</svg>
